#format: frame checksums
#version: 1
#hash: MD5
#tb 0: 1/25
#stream#, dts,        pts, duration,     size, hash
0,          0,          0,        1,   144508, 808a5bf7f8647095ed629c18bcd78c8e
0,          1,          1,        1,   144496, 88d91b5aebecb8e3553dc5d25c11f663
0,          2,          2,        1,   144376, 979d1dcc8eb2ead071545e4098453ab5
0,          3,          3,        1,   144420, ce1cca3a2399408b1fd3dc28f2f908ff
0,          4,          4,        1,   144588, f028271d61bc3f7f29eb670b2dc2227d
0,          5,          5,        1,   144444, 4caecb43ab4f98af4bc2d8fc5737165e
0,          6,          6,        1,   144408, 78313642af9937e83d4206cf69423f88
0,          7,          7,        1,   144408, 02afd3b87e1f4a88236c23613d0bb138
0,          8,          8,        1,   144316, 677dc12dbff90c9f25bc5b1bcfae0220
0,          9,          9,        1,   144316, 6dd8385746a3a982dfa7683f7b206d86
0,         10,         10,        1,   144248, 0611dfc4b3ced7c52b5d014d114e3052
0,         11,         11,        1,   144168, 7d6d56be15d67c0ef736909080bf6d20
0,         12,         12,        1,   144452, 3a30b5305b301cd1cedffc44867659a7
0,         13,         13,        1,   144312, b4f1329701c8284f8907e82e73dc225f
0,         14,         14,        1,   144252, ab4ee9e419d38dca74a22475ffed6b4f
0,         15,         15,        1,   144232, f486e7e950c8e45b881755fbee9ca967
0,         16,         16,        1,   144312, aa8aa1826a1da8087567c13914fb1f79
0,         17,         17,        1,   144348, 9c9ce3c86308dcda388645c0ab3b3f37
0,         18,         18,        1,   144356, d33fd7c7f23e851a17fd0f0f768db726
0,         19,         19,        1,   144360, a63e8e41686800d60566b19a9f2783fc
0,         20,         20,        1,   144376, c9b694f8df1cb44b42aa902392a18a87
0,         21,         21,        1,   144416, 5624b1dc448e6e6bee47432df8c2703d
0,         22,         22,        1,   144340, 079128a1838e8fcb718cf4280560e40f
0,         23,         23,        1,   144376, bb67943fd9d91d6a8af9e4b2da2ef52b
0,         24,         24,        1,   144376, b91459d03569354faca2237ffbbdf0a5
0,         25,         25,        1,   144320, 7a8863d8786eee1b82c7469d79d03156
0,         26,         26,        1,   144408, 13873c8e8a66d12609864bc2a4127ddb
0,         27,         27,        1,   144516, 09f74425c309920aca58488e8bf9845f
0,         28,         28,        1,   144676, 12441f9a3d8215793b6b38c6e647d10d
0,         29,         29,        1,   144648, 6895219f14106bbc780c654fb9835abc
0,         30,         30,        1,   144488, 0738dc5c283869272bf28bd6a3107808
0,         31,         31,        1,   144492, 375f99622b54462ef886e66f96998ef3
0,         32,         32,        1,   144372, effb150140b4d84a3ab6a277992b9da3
0,         33,         33,        1,   144168, 09677824ee8b6fff8391d6d8fef49459
0,         34,         34,        1,   144180, ae4b4a60e2fe35f308201a3ace709f2e
0,         35,         35,        1,   144348, 3f8c8eacfbaee2560059c687a037af7a
0,         36,         36,        1,   144544, df5dc52fb501151cf8d0bd997f6b3e17
0,         37,         37,        1,   144516, a9fdb6284f9b3b6d3cb59ad58897cd82
0,         38,         38,        1,   144528, b4e82d29344b4ef0d34bf37e36f08cdf
0,         39,         39,        1,   144452, 88516ddef80594babbda3801710bf89b
0,         40,         40,        1,   144532, d9937a226562e3e02d6a6b134f04043a
0,         41,         41,        1,   144348, d8c09a3ce3ff01b1620205d54cf28d39
0,         42,         42,        1,   144332, 5d79f1d677fe98e21b15821f8b3b5754
0,         43,         43,        1,   144428, c9717bd43d9ddb4cee7946e725fd54e4
0,         44,         44,        1,   144476, 18db82ef876bc80d777f801107c45c18
0,         45,         45,        1,   144596, c62c01892d002dbb75a2020b9d0a1137
0,         46,         46,        1,   144592, 9faf6283b8753002005c5a04ae345d5b
0,         47,         47,        1,   144512, 8c25deaf7a77b0991861a5c62b4fe5d1
0,         48,         48,        1,   144468, dcaaa1058c59946691d087c9941ac956
0,         49,         49,        1,   144500, b36206851f8613bf9cae5296d85eb1c1
